<svg xmlns="http://www.w3.org/2000/svg" xmlns:xlink="http://www.w3.org/1999/xlink" width="500" zoomAndPan="magnify" viewBox="0 0 375 374.999991" height="500" preserveAspectRatio="xMidYMid meet" version="1.0"><defs><g/></defs><g fill="#000000" fill-opacity="1"><g transform="translate(6.447157, 242.908773)"><g><path d="M 38.332031 -50.863281 L 34.511719 -50.863281 C 35.785156 -47.042969 35.785156 -40.679688 35.785156 -40.679688 L 35.785156 -14.074219 L 16.152344 -48.183594 C 14.878906 -50.195312 12.867188 -50.863281 10.453125 -50.863281 L 2.746094 -50.863281 C 3.953125 -47.042969 3.953125 -40.679688 3.953125 -40.679688 L 3.953125 -2.546875 C 3.953125 -1.140625 5.09375 0 6.5 0 L 11.59375 0 C 10.320312 -3.820312 10.320312 -10.1875 10.320312 -10.1875 L 10.320312 -37.796875 L 32.835938 0.671875 L 42.152344 -6.300781 L 42.152344 -47.042969 C 42.152344 -49.121094 40.410156 -50.863281 38.332031 -50.863281 Z M 38.332031 -50.863281 "/></g></g></g><g fill="#000000" fill-opacity="1"><g transform="translate(71.184461, 242.908773)"><g><path d="M 14.542969 -44.496094 L 30.15625 -44.496094 C 32.234375 -44.496094 34.109375 -45.769531 34.914062 -47.714844 L 36.1875 -50.863281 L 1.875 -50.863281 C 4.355469 -47.042969 4.355469 -40.679688 4.355469 -38.132812 L 4.355469 -5.09375 C 4.355469 -2.277344 6.632812 0 9.449219 0 L 30.15625 0 C 32.234375 0 34.109375 -1.273438 34.914062 -3.214844 C 34.914062 -3.214844 35.851562 -5.5625 36.054688 -6.367188 C 32.769531 -6.367188 18.832031 -6.367188 14.542969 -6.367188 Z M 22.183594 -30.492188 C 20.171875 -30.492188 17.894531 -29.285156 17.089844 -27.34375 L 15.816406 -24.125 L 26 -24.125 C 28.078125 -24.125 30.289062 -25.398438 31.09375 -27.273438 L 32.367188 -30.492188 Z M 22.183594 -30.492188 "/></g></g></g><g fill="#000000" fill-opacity="1"><g transform="translate(127.21029, 242.908773)"><g><path d="M 69.359375 -50.863281 C 67.683594 -50.863281 65.941406 -50.863281 65.941406 -50.863281 L 61.117188 -50.863281 C 64.132812 -47.847656 64 -45.367188 62.660156 -41.347656 L 62.589844 -41.214844 L 62.390625 -40.679688 L 52.203125 -11.59375 L 39.671875 -47.445312 C 39.003906 -49.457031 37.058594 -50.863281 34.914062 -50.863281 C 31.765625 -50.863281 27.675781 -50.863281 27.675781 -50.863281 L 29.820312 -44.832031 L 30.492188 -42.890625 C 32.101562 -37.863281 32.101562 -34.246094 30.359375 -29.21875 L 24.125 -11.527344 L 11.792969 -47.445312 C 11.058594 -49.457031 9.113281 -50.863281 6.96875 -50.863281 C 3.820312 -50.863281 -0.199219 -50.863281 -0.199219 -50.863281 L 15.75 -5.09375 C 16.820312 -2.078125 19.703125 0 22.917969 0 L 26.402344 0 L 27.207031 -2.34375 L 35.917969 -27.273438 L 43.558594 -5.5625 C 44.699219 -2.210938 47.847656 0 51.398438 0 L 55.152344 0 L 55.757812 -1.609375 L 71.773438 -47.445312 C 72.375 -49.121094 71.101562 -50.863281 69.359375 -50.863281 Z M 69.359375 -50.863281 "/></g></g></g><g fill="#000000" fill-opacity="1"><g transform="translate(218.142362, 242.908773)"><g/></g></g><g fill="#000000" fill-opacity="1"><g transform="translate(186.851517, 252.742877)"><g><path d="M 1.984375 44.140625 C 4.722656 42.472656 7.050781 39.941406 8.96875 36.546875 C 10.894531 33.148438 12.09375 29.640625 12.5625 26.015625 C 12.257812 25.878906 11.976562 25.769531 11.71875 25.6875 C 11.25 25.601562 10.738281 25.5625 10.1875 25.5625 C 1.8125 25.945312 -6.472656 27.269531 -14.671875 29.53125 C -16.421875 30 -18.109375 30.75 -19.734375 31.78125 C -21.691406 32.96875 -22.742188 34.414062 -22.890625 36.125 C -23.046875 37.832031 -22.3125 39.519531 -20.6875 41.1875 C -17.875 43.925781 -14.210938 45.570312 -9.703125 46.125 C -5.203125 46.675781 -1.304688 46.015625 1.984375 44.140625 Z M 26.515625 16.984375 C 28.648438 17.359375 30.8125 17.359375 33 16.984375 C 33.851562 16.890625 34.640625 16.84375 35.359375 16.84375 C 57.179688 15.601562 78.984375 15.5 100.765625 16.53125 C 120.972656 17.207031 141.09375 18.570312 161.125 20.625 L 162.078125 20.625 C 166.390625 21.09375 169.164062 21.988281 170.40625 23.3125 C 170.875 23.695312 171.066406 24.296875 170.984375 25.109375 C 170.773438 25.878906 170.390625 26.457031 169.828125 26.84375 C 169.273438 27.226562 168.679688 27.460938 168.046875 27.546875 C 167.359375 27.710938 166.648438 27.710938 165.921875 27.546875 L 165.609375 27.546875 C 127.554688 23.867188 89.457031 22.78125 51.3125 24.28125 L 45.671875 24.59375 C 39.648438 24.851562 33.628906 25.023438 27.609375 25.109375 C 24.796875 25.023438 22.914062 26.304688 21.96875 28.953125 C 20.476562 33.097656 18.515625 36.941406 16.078125 40.484375 C 11.929688 46.210938 6.738281 50.046875 0.5 51.984375 C -5.726562 53.929688 -12.085938 53.726562 -18.578125 51.375 C -20.835938 50.519531 -22.820312 49.472656 -24.53125 48.234375 C -25.5625 47.597656 -26.546875 46.851562 -27.484375 46 C -29.453125 44.289062 -30.582031 41.941406 -30.875 38.953125 C -31.050781 36.046875 -30.296875 33.648438 -28.609375 31.765625 C -26.921875 29.890625 -24.898438 28.289062 -22.546875 26.96875 C -19.640625 25.257812 -16.628906 23.9375 -13.515625 23 C -10.398438 22.0625 -7.257812 21.3125 -4.09375 20.75 C -0.507812 20.113281 3.007812 19.601562 6.46875 19.21875 C 7.789062 19.050781 9.160156 18.859375 10.578125 18.640625 C 13.140625 18.390625 14.832031 17.910156 15.65625 17.203125 C 16.488281 16.492188 17.144531 14.898438 17.625 12.421875 C 20.050781 1.535156 21.800781 -9.4375 22.875 -20.5 C 24.28125 -37.15625 25.21875 -53.832031 25.6875 -70.53125 C 25.863281 -76.46875 26.097656 -82.40625 26.390625 -88.34375 C 27.585938 -120.164062 28.054688 -152.003906 27.796875 -183.859375 C 27.796875 -193.722656 26.859375 -203.503906 24.984375 -213.203125 C 24.679688 -214.523438 24.53125 -215.828125 24.53125 -217.109375 C 24.625 -218.046875 25.039062 -218.898438 25.78125 -219.671875 C 26.53125 -220.441406 27.375 -220.828125 28.3125 -220.828125 C 29.46875 -220.828125 30.320312 -220.398438 30.875 -219.546875 C 31.988281 -219.335938 32.695312 -218.632812 33 -217.4375 C 33.164062 -216.875 33.3125 -216.359375 33.4375 -215.890625 C 34.375 -212.691406 35.125 -209.488281 35.6875 -206.28125 C 37.007812 -198.207031 37.671875 -190.070312 37.671875 -181.875 C 37.835938 -165.5625 37.847656 -149.222656 37.703125 -132.859375 C 37.554688 -116.503906 37.078125 -100.148438 36.265625 -83.796875 L 35.359375 -63.484375 C 35.015625 -53.617188 34.546875 -43.816406 33.953125 -34.078125 C 33.015625 -18.191406 30.726562 -2.539062 27.09375 12.875 C 27.09375 13.175781 27.03125 13.5 26.90625 13.84375 C 26.644531 14.4375 26.515625 15.054688 26.515625 15.703125 C 26.429688 16.078125 26.429688 16.503906 26.515625 16.984375 Z M 26.515625 16.984375 "/></g></g></g><g fill="#000000" fill-opacity="1"><g transform="translate(250.591752, 252.742877)"><g><path d="M 16.46875 -46.890625 C 22.019531 -47.148438 25.84375 -44.566406 27.9375 -39.140625 C 29.425781 -35.171875 29.835938 -30.929688 29.171875 -26.421875 C 28.515625 -21.921875 27.015625 -18.175781 24.671875 -15.1875 C 22.398438 -12.445312 19.640625 -10.679688 16.390625 -9.890625 C 13.148438 -9.109375 9.984375 -9.367188 6.890625 -10.671875 C 3.796875 -11.972656 1.347656 -14.546875 -0.453125 -18.390625 C -1.859375 -21.804688 -2.328125 -25.242188 -1.859375 -28.703125 C -1.472656 -31.609375 -0.660156 -34.425781 0.578125 -37.15625 C 1.984375 -40.53125 4.070312 -42.972656 6.84375 -44.484375 C 9.625 -46.003906 12.832031 -46.804688 16.46875 -46.890625 Z M 13.96875 -14.484375 C 16.3125 -15.890625 17.992188 -17.925781 19.015625 -20.59375 C 20.046875 -23.257812 20.613281 -26.117188 20.71875 -29.171875 C 20.832031 -32.234375 20.585938 -35.085938 19.984375 -37.734375 C 19.171875 -41.410156 18.082031 -43.210938 16.71875 -43.140625 C 15.351562 -43.078125 13.941406 -41.847656 12.484375 -39.453125 C 11.035156 -37.066406 9.765625 -34.1875 8.671875 -30.8125 C 7.585938 -27.4375 6.925781 -24.203125 6.6875 -21.109375 C 6.457031 -18.015625 6.882812 -15.757812 7.96875 -14.34375 C 9.0625 -12.9375 11.0625 -12.984375 13.96875 -14.484375 Z M 13.96875 -14.484375 "/></g></g></g><g fill="#000000" fill-opacity="1"><g transform="translate(284.99227, 252.742877)"><g><path d="M 16.46875 -46.890625 C 22.019531 -47.148438 25.84375 -44.566406 27.9375 -39.140625 C 29.425781 -35.171875 29.835938 -30.929688 29.171875 -26.421875 C 28.515625 -21.921875 27.015625 -18.175781 24.671875 -15.1875 C 22.398438 -12.445312 19.640625 -10.679688 16.390625 -9.890625 C 13.148438 -9.109375 9.984375 -9.367188 6.890625 -10.671875 C 3.796875 -11.972656 1.347656 -14.546875 -0.453125 -18.390625 C -1.859375 -21.804688 -2.328125 -25.242188 -1.859375 -28.703125 C -1.472656 -31.609375 -0.660156 -34.425781 0.578125 -37.15625 C 1.984375 -40.53125 4.070312 -42.972656 6.84375 -44.484375 C 9.625 -46.003906 12.832031 -46.804688 16.46875 -46.890625 Z M 13.96875 -14.484375 C 16.3125 -15.890625 17.992188 -17.925781 19.015625 -20.59375 C 20.046875 -23.257812 20.613281 -26.117188 20.71875 -29.171875 C 20.832031 -32.234375 20.585938 -35.085938 19.984375 -37.734375 C 19.171875 -41.410156 18.082031 -43.210938 16.71875 -43.140625 C 15.351562 -43.078125 13.941406 -41.847656 12.484375 -39.453125 C 11.035156 -37.066406 9.765625 -34.1875 8.671875 -30.8125 C 7.585938 -27.4375 6.925781 -24.203125 6.6875 -21.109375 C 6.457031 -18.015625 6.882812 -15.757812 7.96875 -14.34375 C 9.0625 -12.9375 11.0625 -12.984375 13.96875 -14.484375 Z M 13.96875 -14.484375 "/></g></g></g><g fill="#000000" fill-opacity="1"><g transform="translate(319.392787, 252.742877)"><g><path d="M 20.4375 -161.640625 C 24.832031 -166.972656 29.257812 -169.96875 33.71875 -170.625 C 38.1875 -171.289062 42.332031 -170.078125 46.15625 -166.984375 C 49.976562 -163.890625 53.03125 -159.425781 55.3125 -153.59375 C 57.601562 -147.757812 58.75 -141.0625 58.75 -133.5 C 58.75 -125.945312 57.253906 -118.023438 54.265625 -109.734375 C 48.921875 -96.023438 42.019531 -82.570312 33.5625 -69.375 C 25.113281 -56.175781 17.128906 -45.476562 9.609375 -37.28125 C 9.484375 -37.03125 9.421875 -36.785156 9.421875 -36.546875 C 9.421875 -36.316406 9.421875 -36.101562 9.421875 -35.90625 C 9.421875 -35.71875 9.484375 -35.664062 9.609375 -35.75 C 15.328125 -42.40625 20.554688 -46.929688 25.296875 -49.328125 C 30.046875 -51.722656 33.753906 -52.484375 36.421875 -51.609375 C 39.085938 -50.734375 40.257812 -48.765625 39.9375 -45.703125 C 39.625 -42.648438 37.3125 -39.054688 33 -34.921875 C 27.269531 -29.921875 21.90625 -26.953125 16.90625 -26.015625 C 19.8125 -21.867188 22.929688 -18.503906 26.265625 -15.921875 C 29.597656 -13.335938 32.78125 -11.40625 35.8125 -10.125 C 36.925781 -9.65625 37.910156 -9.226562 38.765625 -8.84375 C 40.640625 -8.15625 41.894531 -7.40625 42.53125 -6.59375 C 42.75 -6.300781 42.921875 -5.941406 43.046875 -5.515625 C 43.179688 -5.085938 43.046875 -4.570312 42.640625 -3.96875 C 42.234375 -3.375 41.320312 -2.691406 39.90625 -1.921875 C 36.625 -0.335938 33.335938 -0.390625 30.046875 -2.078125 C 26.753906 -3.765625 23.71875 -6.253906 20.9375 -9.546875 C 18.164062 -12.835938 15.90625 -15.953125 14.15625 -18.890625 C 12.40625 -21.835938 11.398438 -23.738281 11.140625 -24.59375 C 10.847656 -24.125 10.679688 -23.046875 10.640625 -21.359375 C 10.597656 -19.671875 10.578125 -17.695312 10.578125 -15.4375 C 10.578125 -12.625 10.488281 -9.910156 10.3125 -7.296875 C 10.3125 -6.828125 10.3125 -6.398438 10.3125 -6.015625 C 10.3125 -4.398438 10.078125 -3.3125 9.609375 -2.75 C 9.140625 -2.195312 7.898438 -1.769531 5.890625 -1.46875 C 4.398438 -1.132812 3.066406 -1.125 1.890625 -1.4375 C 0.710938 -1.757812 0.0820312 -2.710938 0 -4.296875 C 0 -7.109375 0 -9.925781 0 -12.75 C 0.0820312 -23.9375 0.234375 -35.171875 0.453125 -46.453125 C 0.535156 -54.515625 1.085938 -67.816406 2.109375 -86.359375 C 2.203125 -89.265625 2.535156 -93.8125 3.109375 -100 C 3.679688 -106.195312 4.617188 -113.148438 5.921875 -120.859375 C 7.222656 -128.566406 9.046875 -136.0625 11.390625 -143.34375 C 13.742188 -150.625 16.757812 -156.722656 20.4375 -161.640625 Z M 26.328125 -37.984375 C 30.773438 -43.066406 32.921875 -46.148438 32.765625 -47.234375 C 32.617188 -48.328125 31.1875 -48.070312 28.46875 -46.46875 C 25.757812 -44.875 22.6875 -42.59375 19.25 -39.625 C 15.8125 -36.65625 13.003906 -33.632812 10.828125 -30.5625 C 11.210938 -30.425781 12.394531 -30.691406 14.375 -31.359375 C 16.363281 -32.023438 18.5 -32.941406 20.78125 -34.109375 C 23.070312 -35.285156 24.921875 -36.578125 26.328125 -37.984375 Z M 51.3125 -125.109375 C 51.570312 -127.460938 51.632812 -130.695312 51.5 -134.8125 C 51.375 -138.9375 50.90625 -143.285156 50.09375 -147.859375 C 49.28125 -152.429688 48.050781 -156.425781 46.40625 -159.84375 C 44.769531 -163.257812 42.648438 -165.394531 40.046875 -166.25 C 36.753906 -167.269531 33.25 -165.269531 29.53125 -160.25 C 25.8125 -155.238281 22.328125 -146.523438 19.078125 -134.109375 C 15.835938 -121.703125 13.28125 -104.929688 11.40625 -83.796875 C 10.675781 -75.890625 10.097656 -68.132812 9.671875 -60.53125 C 9.242188 -52.9375 8.925781 -47.023438 8.71875 -42.796875 C 22 -62.222656 32.066406 -78.585938 38.921875 -91.890625 C 45.773438 -105.203125 49.90625 -116.273438 51.3125 -125.109375 Z M 51.3125 -125.109375 "/></g></g></g></svg>